<mxfile host="app.diagrams.net" modified="2024-05-21T21:43:43.685Z" agent="Mozilla/5.0 (Windows NT 10.0; Win64; x64) AppleWebKit/537.36 (KHTML, like Gecko) Chrome/124.0.0.0 Safari/537.36" etag="JSF_1cgsxNwUewc5c0d6" version="24.4.1" type="device">
  <diagram name="Page-1" id="74b105a0-9070-1c63-61bc-23e55f88626e">
    <mxGraphModel dx="1500" dy="757" grid="1" gridSize="10" guides="1" tooltips="1" connect="1" arrows="1" fold="1" page="1" pageScale="1.5" pageWidth="1169" pageHeight="826" background="none" math="0" shadow="0">
      <root>
        <mxCell id="0" style=";html=1;" />
        <mxCell id="1" style=";html=1;" parent="0" />
        <mxCell id="MouWvajNlCZjqvz80Uh1-17" value="" style="rounded=0;whiteSpace=wrap;html=1;" vertex="1" parent="1">
          <mxGeometry x="480" y="210" width="460" height="410" as="geometry" />
        </mxCell>
        <mxCell id="10b056a9c633e61c-30" value="Title" style="text;strokeColor=none;fillColor=none;html=1;fontSize=24;fontStyle=1;verticalAlign=middle;align=center;" parent="1" vertex="1">
          <mxGeometry x="80" y="40" width="1590" height="40" as="geometry" />
        </mxCell>
        <mxCell id="MouWvajNlCZjqvz80Uh1-2" value="Windows" style="rounded=1;whiteSpace=wrap;html=1;fontStyle=1;fillColor=#dae8fc;strokeColor=#6c8ebf;" vertex="1" parent="1">
          <mxGeometry x="660" y="250" width="120" height="60" as="geometry" />
        </mxCell>
        <mxCell id="MouWvajNlCZjqvz80Uh1-3" value="" style="rounded=1;whiteSpace=wrap;html=1;fillColor=#C5FFA8;strokeColor=#82b366;" vertex="1" parent="1">
          <mxGeometry x="520" y="350" width="380" height="190" as="geometry" />
        </mxCell>
        <mxCell id="MouWvajNlCZjqvz80Uh1-4" value="Application Aditional Logic" style="text;html=1;align=center;verticalAlign=middle;whiteSpace=wrap;rounded=0;fontStyle=1;fontSize=16;" vertex="1" parent="1">
          <mxGeometry x="595" y="380" width="230" height="30" as="geometry" />
        </mxCell>
        <mxCell id="MouWvajNlCZjqvz80Uh1-5" value="Entities" style="rounded=1;whiteSpace=wrap;html=1;fontStyle=1" vertex="1" parent="1">
          <mxGeometry x="560" y="440" width="120" height="60" as="geometry" />
        </mxCell>
        <mxCell id="MouWvajNlCZjqvz80Uh1-9" value="OCR" style="rounded=1;whiteSpace=wrap;html=1;fontStyle=1" vertex="1" parent="1">
          <mxGeometry x="730" y="440" width="120" height="60" as="geometry" />
        </mxCell>
        <mxCell id="MouWvajNlCZjqvz80Uh1-15" value="Tesseract" style="rounded=1;whiteSpace=wrap;html=1;fontStyle=1;fillColor=#ffe6cc;strokeColor=#d79b00;" vertex="1" parent="1">
          <mxGeometry x="1120" y="350" width="120" height="60" as="geometry" />
        </mxCell>
        <mxCell id="MouWvajNlCZjqvz80Uh1-16" value="PDFRasterizer4" style="rounded=1;whiteSpace=wrap;html=1;fontStyle=1;fillColor=#ffe6cc;strokeColor=#d79b00;" vertex="1" parent="1">
          <mxGeometry x="1120" y="430" width="120" height="60" as="geometry" />
        </mxCell>
        <mxCell id="MouWvajNlCZjqvz80Uh1-19" value="Newtonsoft.Json" style="rounded=1;whiteSpace=wrap;html=1;fontStyle=1;fillColor=#ffe6cc;strokeColor=#d79b00;" vertex="1" parent="1">
          <mxGeometry x="1120" y="510" width="120" height="60" as="geometry" />
        </mxCell>
        <mxCell id="MouWvajNlCZjqvz80Uh1-20" value="" style="endArrow=none;html=1;rounded=0;exitX=1.004;exitY=0.42;exitDx=0;exitDy=0;exitPerimeter=0;entryX=0;entryY=0.5;entryDx=0;entryDy=0;" edge="1" parent="1" source="MouWvajNlCZjqvz80Uh1-17" target="MouWvajNlCZjqvz80Uh1-15">
          <mxGeometry width="50" height="50" relative="1" as="geometry">
            <mxPoint x="1100" y="660" as="sourcePoint" />
            <mxPoint x="1150" y="610" as="targetPoint" />
          </mxGeometry>
        </mxCell>
        <mxCell id="MouWvajNlCZjqvz80Uh1-21" value="" style="endArrow=none;html=1;rounded=0;exitX=1.01;exitY=0.612;exitDx=0;exitDy=0;exitPerimeter=0;entryX=0;entryY=0.5;entryDx=0;entryDy=0;" edge="1" parent="1" source="MouWvajNlCZjqvz80Uh1-17" target="MouWvajNlCZjqvz80Uh1-16">
          <mxGeometry width="50" height="50" relative="1" as="geometry">
            <mxPoint x="1100" y="660" as="sourcePoint" />
            <mxPoint x="1150" y="610" as="targetPoint" />
          </mxGeometry>
        </mxCell>
        <mxCell id="MouWvajNlCZjqvz80Uh1-22" value="" style="endArrow=none;html=1;rounded=0;entryX=0;entryY=0.5;entryDx=0;entryDy=0;" edge="1" parent="1" target="MouWvajNlCZjqvz80Uh1-19">
          <mxGeometry width="50" height="50" relative="1" as="geometry">
            <mxPoint x="940" y="540" as="sourcePoint" />
            <mxPoint x="1150" y="610" as="targetPoint" />
          </mxGeometry>
        </mxCell>
        <mxCell id="MouWvajNlCZjqvz80Uh1-24" value="User" style="shape=umlActor;verticalLabelPosition=bottom;verticalAlign=top;html=1;outlineConnect=0;fillColor=#f5f5f5;strokeColor=#666666;fontColor=#333333;" vertex="1" parent="1">
          <mxGeometry x="300" y="250" width="30" height="60" as="geometry" />
        </mxCell>
        <mxCell id="MouWvajNlCZjqvz80Uh1-25" value="" style="endArrow=none;html=1;rounded=0;" edge="1" parent="1" source="MouWvajNlCZjqvz80Uh1-24" target="MouWvajNlCZjqvz80Uh1-2">
          <mxGeometry width="50" height="50" relative="1" as="geometry">
            <mxPoint x="840" y="520" as="sourcePoint" />
            <mxPoint x="890" y="470" as="targetPoint" />
          </mxGeometry>
        </mxCell>
        <mxCell id="MouWvajNlCZjqvz80Uh1-26" value="WPF Application" style="text;html=1;align=center;verticalAlign=middle;whiteSpace=wrap;rounded=0;fontStyle=1" vertex="1" parent="1">
          <mxGeometry x="480" y="210" width="120" height="30" as="geometry" />
        </mxCell>
      </root>
    </mxGraphModel>
  </diagram>
</mxfile>
